<svg id="Layer_1" data-name="Layer 1" xmlns="http://www.w3.org/2000/svg" viewBox="0 0 224 50"><defs><style>.cls-1{fill:#fff;}</style></defs><title>logo</title><path class="cls-1" d="M22.444,0V27.444H49.752A24.945,24.945,0,1,1,22.444,0Zm4.988,0a25.008,25.008,0,0,1,22.32,22.431H27.432V0Z"/><path class="cls-1" d="M100.8,43.383H94.85L76.96,16.071V43.383H71.013V6.426H76.96L94.85,33.843V6.426H100.8V43.383Z"/><path class="cls-1" d="M126.2,16.071a10.436,10.436,0,0,1,3.912,5.137V14.5h5.946V43.383h-5.946v-6.71A10.429,10.429,0,0,1,126.2,41.81a11.327,11.327,0,0,1-6.677,1.94,12.7,12.7,0,0,1-6.7-1.782,12.154,12.154,0,0,1-4.616-5.137,17.568,17.568,0,0,1-1.669-7.916,17.439,17.439,0,0,1,1.669-7.863,12.163,12.163,0,0,1,4.616-5.137,12.7,12.7,0,0,1,6.7-1.782A11.333,11.333,0,0,1,126.2,16.071Zm-11.188,5.845a9.851,9.851,0,0,0-2.374,7,9.85,9.85,0,0,0,2.374,7,8.253,8.253,0,0,0,6.338,2.542,8.6,8.6,0,0,0,4.485-1.179,8.367,8.367,0,0,0,3.13-3.329,10.542,10.542,0,0,0,1.147-5.033,10.584,10.584,0,0,0-1.147-5.006,8.328,8.328,0,0,0-3.13-3.355,8.6,8.6,0,0,0-4.485-1.18A8.257,8.257,0,0,0,115.011,21.917Z"/><path class="cls-1" d="M187.306,17.277q3.052,3.251,3.051,9.279V43.383h-5.946v-16.2a8.394,8.394,0,0,0-1.877-5.844,6.619,6.619,0,0,0-5.164-2.071,7.2,7.2,0,0,0-5.555,2.228q-2.062,2.228-2.06,6.526V43.383h-5.946v-16.2a8.394,8.394,0,0,0-1.878-5.844,6.619,6.619,0,0,0-5.164-2.071A7.2,7.2,0,0,0,151.21,21.5q-2.061,2.228-2.06,6.526V43.383H143.2V14.5h5.946v6.028A9.179,9.179,0,0,1,152.8,15.7a10.688,10.688,0,0,1,6-1.678,10.859,10.859,0,0,1,6.234,1.783,10.087,10.087,0,0,1,3.834,5.137,10.429,10.429,0,0,1,4.016-5.085,11.063,11.063,0,0,1,6.26-1.835A10.666,10.666,0,0,1,187.306,17.277Z"/><path class="cls-1" d="M223.792,30.12H201.675q0.156,4.456,2.451,6.6a8,8,0,0,0,5.686,2.149,8.245,8.245,0,0,0,5.034-1.52,6.282,6.282,0,0,0,2.53-4.036h6.363a12.263,12.263,0,0,1-7.145,9.095,15.494,15.494,0,0,1-6.521,1.337,14.945,14.945,0,0,1-7.381-1.782,12.644,12.644,0,0,1-5.034-5.137,16.312,16.312,0,0,1-1.825-7.916,16.2,16.2,0,0,1,1.825-7.863,12.654,12.654,0,0,1,5.034-5.137,16.282,16.282,0,0,1,14.762-.026,12.193,12.193,0,0,1,4.851,4.823,13.9,13.9,0,0,1,1.7,6.841A14.013,14.013,0,0,1,223.792,30.12Zm-6.755-7.47a6.73,6.73,0,0,0-2.921-2.831,8.993,8.993,0,0,0-4.043-.917,8.325,8.325,0,0,0-5.841,2.149,8.8,8.8,0,0,0-2.556,6.343H218A8.933,8.933,0,0,0,217.037,22.651Z"/></svg>